<svg xmlns="http://www.w3.org/2000/svg" xml:space="preserve" viewBox="0 0 119.72 142.88"><g fill="currentColor" style="fill-rule:evenodd;clip-rule:evenodd"><path d="M40.06.37c9.4 0 17.03 11.69 17.03 26.1s-7.63 26.1-17.03 26.1-17.03-11.68-17.03-26.1C23.04 12.06 30.66.37 40.06.37M79.35 0c9.4 0 17.03 11.69 17.03 26.1s-7.63 26.1-17.03 26.1-17.03-11.68-17.03-26.1C62.33 11.69 69.95 0 79.35 0"/><path transform="translate(0 20)" d="M61.71 63.18c19.94.04 22.42 13.25 39.23 35.86 8.38 16.45-2.5 26.82-21.15 22.38-8.46-4.31-14.41-5.83-20.38-5.63-10.34.36-12.95 7.18-24.98 6.7-9.28-.25-13.46-4.14-14.27-10.07-.87-6.3 1.56-10.28 4.52-15.49 11.5-20.28 23.39-36.29 37.03-33.75M7.17 19.08C.14 21.86-2.1 32.85 2.16 43.62S15.57 60.87 22.6 58.09s9.27-13.77 5.01-24.54S14.2 16.3 7.17 19.08m105.38 0c7.03 2.78 9.27 13.77 5.01 24.54s-13.42 17.25-20.44 14.47-9.27-13.77-5.01-24.54 13.41-17.25 20.44-14.47"/></g></svg>
