<svg xmlns="http://www.w3.org/2000/svg" viewBox="0 0 250 750">
  <defs>
    <g id="paw">
      <path fill="#c1c7e0" d="M20.03.19c4.7 0 8.52 5.85 8.52 13.05s-3.82 13.05-8.52 13.05-8.52-5.84-8.52-13.05C11.52 6.03 15.33.19 20.03.19M39.68 0c4.7 0 8.52 5.85 8.52 13.05s-3.82 13.05-8.52 13.05-8.52-5.84-8.52-13.05C31.17 5.85 34.98 0 39.68 0" style="fill-rule:evenodd;clip-rule:evenodd"/>
      <path fill="#c1c7e0" d="M30.86 31.59c9.97.02 11.21 6.63 19.62 17.93 4.19 8.23-1.25 13.41-10.58 11.19-4.23-2.16-7.21-2.92-10.19-2.82-5.17.18-6.48 3.59-12.49 3.35-4.64-.13-6.73-2.07-7.14-5.04-.44-3.15.78-5.14 2.26-7.75 5.75-10.14 11.7-18.15 18.52-16.86M3.59 19.54C.07 20.93-1.05 26.43 1.08 31.81s6.71 8.63 11.3 7.24 4.64-6.89 2.51-12.27-6.71-8.63-10.3-7.24m52.69 0c3.52 1.39 4.64 6.89 2.51 12.27s-6.71 8.63-10.22 7.24-4.64-6.89-2.51-12.27 6.71-8.63 10.22-7.24" style="fill-rule:evenodd;clip-rule:evenodd"/>
    </g>
  </defs>

  <use href="#paw" x="10" y="20" transform="rotate(-30 40 50) scale(0.75)" opacity="0.1"/>

  <use href="#paw" x="40" y="130" transform="rotate(-20 70 160) scale(0.75)" opacity="0.15"/>

  <use href="#paw" x="85" y="240" transform="rotate(-8 115 270) scale(0.75)" opacity="0.2"/>
  <use href="#paw" x="130" y="350" transform="rotate(5 160 380) scale(0.75)" opacity="0.3"/>

  <use href="#paw" x="155" y="467" transform="rotate(15 185 497) scale(0.75)" opacity="0.35"/>

  <use href="#paw" x="145" y="584" transform="rotate(20 175 614) scale(0.75)" opacity="0.4"/>
  <use href="#paw" x="110" y="694" transform="rotate(25 140 724) scale(0.75)" opacity="0.4"/>
   <use href="#paw" x="50" y="794" transform="rotate(25 140 724) scale(0.75)" opacity="0.4"/>
</svg>
