<svg xmlns="http://www.w3.org/2000/svg" fill="none" viewBox="0 0 24 24"><g clip-path="url(#a)"><path fill="currentColor" d="M8.164 8a2.5 2.5 0 0 1-1.579-.594 4.83 4.83 0 0 1-1.557-3.26C4.785 1.651 6.145.18 7.614.016A2.66 2.66 0 0 1 9.6.611a4.18 4.18 0 0 1 1.376 2.9c.224 2.324-.848 4.49-2.812 4.49m-.328-6c-.577.064-.92.883-.817 1.946.03.714.324 1.392.826 1.9A.54.54 0 0 0 8.2 6c.351-.039.916-.94.783-2.3C8.641 1.834 7.861 2 7.836 2.005zM3.164 14a2.5 2.5 0 0 1-1.579-.594 4.83 4.83 0 0 1-1.557-3.26C-.215 7.651 1.145 6.18 2.614 6.016a2.66 2.66 0 0 1 1.986.594 4.18 4.18 0 0 1 1.376 2.9c.224 2.324-.899 4.49-2.812 4.49m-.328-6c-.577.064-.92.883-.817 1.946.03.714.324 1.392.826 1.9A.56.56 0 0 0 3.2 12c.351-.039.916-.94.783-2.3C3.718 7.872 2.861 8 2.836 8.005zm13 0c-1.708.012-3.034-2.166-2.807-4.492a4.18 4.18 0 0 1 1.376-2.9 2.66 2.66 0 0 1 1.981-.59c1.47.163 2.83 1.634 2.586 4.127a4.83 4.83 0 0 1-1.557 3.262A2.5 2.5 0 0 1 15.836 8m-.816-4.3c-.133 1.355.432 2.257.783 2.3a.55.55 0 0 0 .352-.145 2.87 2.87 0 0 0 .826-1.9c.21-2.62-1.78-2.45-1.96-.255M20.836 14c-1.862 0-3.034-2.166-2.807-4.492a4.18 4.18 0 0 1 1.376-2.9 2.65 2.65 0 0 1 1.981-.594c1.47.164 2.83 1.635 2.586 4.128a4.83 4.83 0 0 1-1.557 3.262 2.5 2.5 0 0 1-1.579.596m-.816-4.3c-.133 1.355.432 2.257.783 2.3a.57.57 0 0 0 .352-.145 2.87 2.87 0 0 0 .826-1.9c.1-1.063-.24-1.882-.817-1.946C21.14 8 20.115 7.911 20.02 9.7M16 24a4.85 4.85 0 0 1-2.447-.606 3.33 3.33 0 0 0-3.106 0C7.434 25.084 3.922 23.227 4 19c0-4.635 4.507-9 8-9s8 4.364 8 9c0 2.944-1.645 5-4 5m-4-3a4.87 4.87 0 0 1 2.447.605C16.684 22.823 18.035 21.172 18 19c0-3.38-3.52-7-6-7s-6 3.62-6 7c-.032 2.17 1.308 3.823 3.553 2.605A4.87 4.87 0 0 1 12 21"/></g><defs><clipPath id="a"><path fill="#fff" d="M0 0h24v24H0z"/></clipPath></defs></svg>
