<svg xmlns="http://www.w3.org/2000/svg" viewBox="0 0 336 269"><path fill="#020202" stroke="#020202" stroke-width=".094" d="M41.89 32.89c-3.45-19.56 23.8-23.04 38.68-20.55.24 1.22.49 2.46.95 3.62 5.3 3.11 11.15 5.86 14.82 10.99-1.33 6.71-17.8 23.03-17.79 7.35-3.57-.01-1.79 4.73-2.3 7.08-1.75-.56-5.87 2.25-2.58 2.82 1.77 3.56-3.93 13.98-5.24 6.22-4.93-1.62-3.22 5.37-6.42 7.4-6.98 6.42-13.04-2.18-17.84-6.17-.22-1.82-.72-3.64-2.19-4.86-1.6-2.31-4.35-2.76-6.93-3.12l-.9-.16c-1.11-.4-2.24-.11-3.33.2-2.69-.07.99-3.39 2.58-3.29 3.11-1.58 10.92-2.64 8.49-7.53m32.37-19.77c.8 4.84 6.65-1.58 0 0m-18.99 3.14q.72.72 0 0m17.02 1.01c2.49 5.03 3.19 11.37 6.51 15.53 2.21-5.64.92-15.11-6.51-15.53M53.97 28.14c-1.57.6-1.56 1.15.02 1.67 1.65.67 2.85-.52 2.61-2.19l.03-.37c.26-2.16-4.17-1.62-2.66.89m-.48 5.23c-7.6 7.57 12.92 1.21 0 0m-4.22.86q.72.72 0 0m-.99 5c-1.17 3.98 4.03-1.05 0 0Z"/><path stroke="#000" stroke-width=".094" d="M80.57 12.34c8.46 2.6 18.83 8.22 20.81 17.46 9.53 11.74 17.43 25.79 22.45 40.27-8.1-4.87-1.89 18.93 6.66 9.09 23.85 8.97 49.02 14.55 74.52 16.22 25.01-1.05 60.76-.81 69.07 27.44-2.17-6.5 8.27 3.15 7.03 8.06 5.31 20.33 3.62 53.08 24.74 65.77.84 3.48 8.56 16.7 10.28 9.35 1.74 4.12 3.86 9.01 3.56 13.73-6.02 4.35 1.88 15.62-3.75 19.92-5.25-6.88-5.73-27.06-18.01-24.6l-.66.18c-2.27-3.82-7.42-3.37-10.39-6.41 1.94-6.08-1.06-6.75-6.42-7.1.08-8.79-11.02-12.77-17.95-14.46-10.26-5.57-14.59-17.71-24.9-23.31-.33-5.21-19.24-14.88-18.71-2.32-.29.25-.88.75-1.18 1.01l-.65.54c-.4.26-1.2.79-1.59 1.05-2.8-.71-1.96 1.73-1.7 3.53-29.79 8.47-59.91 14.35-90.72 19.19-7.22-3.04-7.73 11.08-9.92 11 .43 10.89-.9 29.49-4.82 38.04-.16-1.25-.23-2.5-.2-3.76 4.25-10.06-6.52-5.01-3.11 2.89-.69 2.86-3.12 9.33.86 9.79 1.91 2.01-6.53 4.18-4.19 9.27-4.01-8.16 2.41-23.93 2.11-35.02-7.72-.26-3.01 13.75-11.19 11.9-3.87-16.72.7-33.97-4.06-50.76.94-14.54-17.68-21-18.4-34.85 2.85-5.15 1.08-13.16 6.26-18.1 1.98-6.89-5.04.6-8.09-.19-3.29-18.27-8.87-36.45-7.45-55.03 3.95-1.87 3.36-4.91-1.08-3.24 1.11-3.69 5.38-4.81 7.3-7.99.26-.27.76-.81 1.02-1.08 5.92-2 11.84-15.65 5.57-15.62-3.29-.57.83-3.38 2.58-2.82 7.02 10.1 16.6-6.11 22.3-11.06 3.33-7.1-12.71-16.91-17.03-14.36-.46-1.16-.71-2.4-.95-3.62m21.72 22.95q.72.72 0 0m2.03 1.95q.705.72 0 0M93.24 57.88c-1.98 3.67-2.15 8.68-3.37 12.87-.69 3.97-3.36 7.14-3.61 10.96 4.18-1.95 6.11-8.43 6.59-13 1.24-.31 3.61-3.54 1.93-3.64 2.26-5.42.45-11.89.8-17.71-4.61-3.34-1.14 7.6-2.34 10.52m4.12 33.27c-4.65 3.12-9.51 6.14-13.44 10.07 2.68 1.65 21.71-11.05 13.44-10.07m37.09 33.46c-5.97 2.27-10.18 14.65-5.11 17.04-.62-6.11 7.45-14.46 5.11-17.04m89.88 3.8c-2.6 1.98-1.72 5.81-1.36 8.6 4.23 2.11 3.71-9.27 1.36-8.6m-140.2 34.01c-.64 3.98 3.99-.77 0 0m29.99 23.87c-1.57 2.96 3.33.18 0 0m-2.87 21.96q.72.705 0 0m-2.8 2.02c-2.97 6.45 4.75.24 0 0m-1.39 5.96c-1.51 3 3.33.11 0 0m-.81 3.14c-2.4 4.73 3.37 2.45 0 0m-14.14 2.96c-2.55 7.19 5.4.48 0 0m11.17 9.95q.72.72 0 0Z"/><path fill="#3f3f3f" stroke="#3f3f3f" stroke-width=".094" d="M74.26 13.12c6.65-1.58.8 4.84 0 0Z"/><path fill="#929292" stroke="#929292" stroke-width=".094" d="M81.52 15.96c4.32-2.55 20.36 7.26 17.03 14.36-.7-1.15-1.43-2.28-2.21-3.37-3.67-5.13-9.52-7.88-14.82-10.99Z"/><path fill="#363636" stroke="#363636" stroke-width=".094" d="M55.27 16.26q.72.72 0 0Z"/><g fill="#999" stroke="#999" stroke-width=".094"><path d="M72.29 17.27c7.43.42 8.72 9.89 6.51 15.53-3.32-4.16-4.02-10.5-6.51-15.53ZM89.87 70.75c.92-.78 1.94-1.43 2.98-2.04-.48 4.57-2.41 11.05-6.59 13 .25-3.82 2.92-6.99 3.61-10.96Z"/></g><path fill="#917348" stroke="#917348" stroke-width=".094" d="M53.97 28.14c-1.51-2.51 2.92-3.05 2.66-.89-.01.09-.02.28-.03.37.24 1.67-.96 2.86-2.61 2.19-.01-.42-.02-1.25-.02-1.67Z"/><path fill="#a99d89" stroke="#a99d89" stroke-width=".094" d="M56.6 27.62c.01-.09.02-.28.03-.37z"/><path fill="#9c9d9d" stroke="#9c9d9d" stroke-width=".094" d="M96.34 26.95c.78 1.09 1.51 2.22 2.21 3.37-5.7 4.95-15.28 21.16-22.3 11.06.51-2.35-1.27-7.09 2.3-7.08-.01 15.68 16.46-.64 17.79-7.35Z"/><path fill="#a89483" stroke="#a89483" stroke-width=".094" d="M53.99 29.81c-1.58-.52-1.59-1.07-.02-1.67 0 .42.01 1.25.02 1.67Z"/><path fill="#585858" stroke="#585858" stroke-width=".094" d="M33.4 40.42c6.02-2.47 3.97-6.93 8.49-7.53 2.43 4.89-5.38 5.95-8.49 7.53Z"/><path fill="#8e7762" stroke="#8e7762" stroke-width=".094" d="M53.49 33.37c12.92 1.21-7.6 7.57 0 0Z"/><path fill="#363339" stroke="#363339" stroke-width=".094" d="M49.27 34.23q.72.72 0 0Z"/><path fill="#606060" stroke="#606060" stroke-width=".094" d="M102.29 35.29q.72.72 0 0Z"/><g fill="#3a3a3a" stroke="#3a3a3a" stroke-width=".094"><path d="M104.32 37.24q.705.72 0 0ZM111.25 208.25q.72.705 0 0Z"/></g><path fill="#1b1d22" stroke="#1b1d22" stroke-width=".094" d="M48.28 39.23c4.03-1.05-1.17 3.98 0 0Z"/><path fill="#070506" stroke="#070506" stroke-width=".094" d="M27.19 61.97c-1.27-5.51-5.5-16.67 1.59-19.81-.06 2.55-2.42 4.32-2.55 6.86.45 1.64.01 5.24 2.65 4.24.58 4.36 3.71 7.72 7.06 10.29.73 1.07 1.45 2.14 2.19 3.21-.45.08-1.36.26-1.81.35-3.5-.78-6.34-3.02-9.13-5.14Z"/><path fill="#696a6c" stroke="#696a6c" stroke-width=".094" d="M30.82 43.71c1.09-.31 2.22-.6 3.33-.2-.94 1.23-1.67 2.6-2.05 4.1-1 1.93-2.11 3.78-3.22 5.65-2.64 1-2.2-2.6-2.65-4.24 3.01 1.51 1.46-4.87 4.59-5.31Z"/><path fill="#b7974e" stroke="#b7974e" stroke-width=".094" d="M73.67 44.2c6.27-.03.35 13.62-5.57 15.62.81-3.95-3.76-2.65-6.09-2 3.2-2.03 1.49-9.02 6.42-7.4 1.31 7.76 7.01-2.66 5.24-6.22Z"/><path fill="#b9954d" stroke="#b9954d" stroke-width=".094" d="M32.1 47.61c.38-1.5 1.11-2.87 2.05-4.1l.9.16c-1.13 5.15 8.57 11.2 6.93 3.12 1.47 1.22 1.97 3.04 2.19 4.86-2.28 9.3 8.01 10.88 14.68 10.74 2.98.86 5.07-3.29 8.23-1.49-1.92 3.18-6.19 4.3-7.3 7.99-5.12 4.14-15.17-.23-21.65-2.13-.74-1.07-1.46-2.14-2.19-3.21-.6-5.28 1.44-12.67-3.84-15.94Z"/><path fill="#946e36" stroke="#946e36" stroke-width=".094" d="M35.05 43.67c2.58.36 5.33.81 6.93 3.12 1.64 8.08-8.06 2.03-6.93-3.12Z"/><path fill="#a1a1a1" stroke="#a1a1a1" stroke-width=".094" d="M93.24 57.88c1.2-2.92-2.27-13.86 2.34-10.52-.35 5.82 1.46 12.29-.8 17.71-3.64.46-.97-4.95-1.54-7.19Z"/><path fill="#c8a357" stroke="#c8a357" stroke-width=".094" d="M32.1 47.61c5.28 3.27 3.24 10.66 3.84 15.94-3.35-2.57-6.48-5.93-7.06-10.29 1.11-1.87 2.22-3.72 3.22-5.65Z"/><path fill="#926c35" stroke="#926c35" stroke-width=".094" d="M44.17 51.65c4.8 3.99 10.86 12.59 17.84 6.17-1.01 1.55-2.04 3.09-3.16 4.57-6.67.14-16.96-1.44-14.68-10.74Z"/><path fill="#d2ac5c" stroke="#d2ac5c" stroke-width=".094" d="M62.01 57.82c2.33-.65 6.9-1.95 6.09 2-.26.27-.76.81-1.02 1.08-3.16-1.8-5.25 2.35-8.23 1.49 1.12-1.48 2.15-3.02 3.16-4.57Z"/><path fill="#414141" stroke="#414141" stroke-width=".094" d="M89.87 70.75c1.22-4.19 1.39-9.2 3.37-12.87.57 2.24-2.1 7.65 1.54 7.19 1.68.1-.69 3.33-1.93 3.64-1.04.61-2.06 1.26-2.98 2.04Z"/><path fill="#939496" stroke="#939496" stroke-width=".094" d="M27.19 61.97c2.79 2.12 5.63 4.36 9.13 5.14-3.71 2.16-7.57-2.25-9.13-5.14Z"/><path fill="#0a0a0a" stroke="#0a0a0a" stroke-width=".094" d="M130.49 79.16c-8.55 9.84-14.76-13.96-6.66-9.09 1.59 3.64 2.41 7.79 6.66 9.09Z"/><path fill="#9e9e9e" stroke="#9e9e9e" stroke-width=".094" d="M97.36 91.15c8.27-.98-10.76 11.72-13.44 10.07 3.93-3.93 8.79-6.95 13.44-10.07Z"/><path fill="#b6954d" stroke="#b6954d" stroke-width=".094" d="M68.31 127.16c3.05.79 10.07-6.7 8.09.19-5.18 4.94-3.41 12.95-6.26 18.1-4.22-4.86-3.12-12.43-1.83-18.29Z"/><path fill="#a9a9a9" stroke="#a9a9a9" stroke-width=".094" d="M134.45 124.61c2.34 2.58-5.73 10.93-5.11 17.04-5.07-2.39-.86-14.77 5.11-17.04Z"/><path fill="#a4a4a4" stroke="#a4a4a4" stroke-width=".094" d="M224.33 128.41c2.35-.67 2.87 10.71-1.36 8.6-.36-2.79-1.24-6.62 1.36-8.6Z"/><path fill="#7a7474" stroke="#7a7474" stroke-width=".094" d="M218.9 161.63c-.53-12.56 18.38-2.89 18.71 2.32-.95.28-1.54.91-1.77 1.86-1.85-1.39-4.33-5.85-6.68-3.07-.54-1.26-.85-2.78-2.17-3.48-2.66-1.96-6.99-3.29-6.29 1.63-.45.18-1.35.55-1.8.74Z"/><path fill="#b8a074" stroke="#b8a074" stroke-width=".094" d="M220.7 160.89c-.7-4.92 3.63-3.59 6.29-1.63-.98 2.43-4.22 2.89-6.29 1.63Z"/><path fill="#a4864b" stroke="#a4864b" stroke-width=".094" d="M226.99 159.26c1.32.7 1.63 2.22 2.17 3.48-1.09.49-2.21.88-3.37 1.17-3.4.57-7 1.88-10.31.32.39-.26 1.19-.79 1.59-1.05 1.28 2.91 4.12-.74.65-.54.3-.26.89-.76 1.18-1.01.45-.19 1.35-.56 1.8-.74 2.07 1.26 5.31.8 6.29-1.63Z"/><path fill="#050505" stroke="#050505" stroke-width=".094" d="M229.16 162.74c2.35-2.78 4.83 1.68 6.68 3.07 12.18 10.61 24.99 24.91 40.1 34.73.18-5.68-9.74-8.57-13.43-13.28 6.93 1.69 18.03 5.67 17.95 14.46 5.36.35 8.36 1.02 6.42 7.1-6.29-2.39 7.03 8.99 10.39 6.41l.66-.18c1.04 5.83 8.49 8.14 8.74 14.02-2.18-3.35-4.91-6.29-7.6-9.23-2 5.73 1.06 13.88-3.99 19.16-5.04 2.87-25.51.56-15.21-7.07-3.57 4.21 3.12 5.54 5.22 2.58 2.12-2.71 3.41-5.98 3.61-9.42 1.08-4.54 2.26-16.03-2.58-6.84-1.64-4.13-3.92-8.94-9.23-7.95-15.26-11.69-33.76-21.45-45.68-35.01 1.26-1.5-.36-2.72-1.9-2.42-1.24-.21-1.86-.86-1.87-1.97 1.1-2.82-2.73-4.32-1.65-6.99 1.16-.29 2.28-.68 3.37-1.17m21.08 20.53q.705.705 0 0m43.1 36.01c.4 6.96-1.38 12.93-3.26 18.69 8.39-.41 9.85-18.33 3.26-18.69Z"/><path fill="#1f1f1f" stroke="#1f1f1f" stroke-width=".094" d="M84.13 162.42c3.99-.77-.64 3.98 0 0Z"/><path fill="#c6ad7c" stroke="#c6ad7c" stroke-width=".094" d="m217.07 163.18.65-.54c3.47-.2.63 3.45-.65.54Z"/><path fill="#52483c" stroke="#52483c" stroke-width=".094" d="M213.78 167.76c-.26-1.8-1.1-4.24 1.7-3.53 3.31 1.56 6.91.25 10.31-.32-1.08 2.67 2.75 4.17 1.65 6.99-2.76-4.77-8.69-4.6-13.66-3.14Z"/><path fill="#bfbfbf" stroke="#bfbfbf" stroke-width=".094" d="M235.84 165.81c.23-.95.82-1.58 1.77-1.86 10.31 5.6 14.64 17.74 24.9 23.31 3.69 4.71 13.61 7.6 13.43 13.28-15.11-9.82-27.92-24.12-40.1-34.73Z"/><path fill="#474747" stroke="#474747" stroke-width=".094" d="M229.31 172.87c1.54-.3 3.16.92 1.9 2.42-1.84-.01-2.47-.81-1.9-2.42Z"/><path fill="#303030" stroke="#303030" stroke-width=".094" d="M250.24 183.27q.705.705 0 0Z"/><path fill="#2b2b2b" stroke="#2b2b2b" stroke-width=".094" d="M114.12 186.29c3.33.18-1.57 2.96 0 0Z"/><path fill="#946929" stroke="#946929" stroke-width=".094" d="M316.13 206c-1.72 7.35-9.44-5.87-10.28-9.35 1.64.4 2.99 1.46 4.01 2.79.59 1.03 1.7 1.49 2.83 1.69.28.26.84.79 1.12 1.05l.48.64c.75.97 1.41 2.02 1.84 3.18Z"/><path fill="#625244" stroke="#625244" stroke-width=".094" d="M309.86 199.44c.97-1.3 3.82.17 2.83 1.69-1.13-.2-2.24-.66-2.83-1.69Z"/><path fill="#1c1412" stroke="#1c1412" stroke-width=".094" d="M313.81 202.18c.85-3.22 3.6 2.22.48.64z"/><path fill="#515253" stroke="#515253" stroke-width=".094" d="M297.27 215.23c-3.36 2.58-16.68-8.8-10.39-6.41 2.97 3.04 8.12 2.59 10.39 6.41Z"/><path fill="#545454" stroke="#545454" stroke-width=".094" d="M108.45 210.27c4.75.24-2.97 6.45 0 0Z"/><path fill="#836235" stroke="#836235" stroke-width=".094" d="M276.89 210.3c5.31-.99 7.59 3.82 9.23 7.95 4.84-9.19 3.66 2.3 2.58 6.84-.23-.62-.67-1.85-.89-2.47.94-3.96-3.99-2.93-3.73.43-1.02-5.1-3.34-9.3-7.19-12.75Z"/><path fill="#8f6a32" stroke="#8f6a32" stroke-width=".094" d="M297.93 215.05c12.28-2.46 12.76 17.72 18.01 24.6 5.63-4.3-2.27-15.57 3.75-19.92.03.53.09 1.58.11 2.1.09 7.52 2.97 15.01 1.56 22.5-2-3.63.06-10.34-2.41-12.26 1.38 7.35-2.07 16.54-10.91 15.77.9-3.76 1.39-7.59.91-11.46 1.97-3.06-.46-5.53-2.28-7.31-.25-5.88-7.7-8.19-8.74-14.02Z"/><path fill="#5d5d5d" stroke="#5d5d5d" stroke-width=".094" d="M107.06 216.23c3.33.11-1.51 3 0 0Z"/><path fill="#b8954a" stroke="#b8954a" stroke-width=".094" d="M92.6 231.06c8.18 1.85 3.47-12.16 11.19-11.9.3 11.09-6.12 26.86-2.11 35.02.34 1.29-.59 2.18-1.5 2.91-3.73-1.89-10.35 1.68-15.6 1.42l-.85.17c1.71-5.63 8.91-7.9 8.23-14.74-.2-4.31-.63-8.68.64-12.88m-1.52 20.1c-.45 8.44 8.15-1.42 0 0Z"/><path fill="#5a5a5a" stroke="#5a5a5a" stroke-width=".094" d="M106.25 219.37c3.37 2.45-2.4 4.73 0 0Z"/><path fill="#a6843c" stroke="#a6843c" stroke-width=".094" d="M293.34 219.28c6.59.36 5.13 18.28-3.26 18.69 1.88-5.76 3.66-11.73 3.26-18.69Z"/><path fill="#aa823e" stroke="#aa823e" stroke-width=".094" d="M284.08 223.05c-.26-3.36 4.67-4.39 3.73-.43.21 6.05-2.68 8.43-3.44 1.22z"/><path fill="#5b5c5c" stroke="#5b5c5c" stroke-width=".094" d="M92.11 222.33c5.4.48-2.55 7.19 0 0Z"/><path fill="#090807" stroke="#090807" stroke-width=".094" d="M319.8 221.83c3.44 8.75 5.63 20.3 2.77 29.71-6.63 1.8-28.68 6.08-20.33-5.65-1.54 7.54 18.01 7.27 19.12-1.56 1.41-7.49-1.47-14.98-1.56-22.5m-18.49 29.37q.705.72 0 0Z"/><path fill="#895b35" stroke="#895b35" stroke-width=".094" d="M284.37 223.84c.76 7.21 3.65 4.83 3.44-1.22.22.62.66 1.85.89 2.47-.2 3.44-1.49 6.71-3.61 9.42-1.19-.95-2.29-2.01-3.05-3.33 1.8-2.06 2.71-4.58 2.33-7.34Z"/><path fill="#9f855b" stroke="#9f855b" stroke-width=".094" d="M105.01 235.12c-3.41-7.9 7.36-12.95 3.11-2.89-1.96-.43-2.39 1.56-3.11 2.89m2.16-6.96c-4.27 3.16 3.95 3.03 0 0Z"/><path fill="#966d1f" stroke="#966d1f" stroke-width=".094" d="M107.17 228.16c3.95 3.03-4.27 3.16 0 0Z"/><path fill="#c6a153" stroke="#c6a153" stroke-width=".094" d="M279.87 231.93c.54-.19 1.63-.56 2.17-.75.76 1.32 1.86 2.38 3.05 3.33-2.1 2.96-8.79 1.63-5.22-2.58Z"/><path fill="#1b1a5f" stroke="#1b1a5f" stroke-width=".094" d="M103.28 232.28q.72.72 0 0Z"/><path fill="#987637" stroke="#987637" stroke-width=".094" d="M105.01 235.12c.72-1.33 1.15-3.32 3.11-2.89-.03 1.26.04 2.51.2 3.76.84 2.79 1.68 8.66-2.45 8.92-3.98-.46-1.55-6.93-.86-9.79Z"/><path fill="#b7964d" stroke="#b7964d" stroke-width=".094" d="M318.95 232.07c2.47 1.92.41 8.63 2.41 12.26-1.11 8.83-20.66 9.1-19.12 1.56 8.29.95 2.94-17.82 6.71-9.51.48 3.87-.01 7.7-.91 11.46 8.84.77 12.29-8.42 10.91-15.77Z"/><path fill="#63513e" stroke="#63513e" stroke-width=".094" d="M83.73 258.68c-4.09-3.87 7.59-9.53 8.23-14.74.68 6.84-6.52 9.11-8.23 14.74Z"/><path fill="#926832" stroke="#926832" stroke-width=".094" d="M91.08 251.16c8.15-1.42-.45 8.44 0 0Z"/><path fill="#a19791" stroke="#a19791" stroke-width=".094" d="M301.31 251.2q.705.72 0 0Z"/><path fill="#685130" stroke="#685130" stroke-width=".094" d="M84.58 258.51c5.25.26 11.87-3.31 15.6-1.42-2.06 4.07-10.91 1.28-15.6 1.42Z"/></svg>