<svg viewBox="0 0 24 24" fill="none" xmlns="http://www.w3.org/2000/svg">
<path d="M36.6387 5.60865C39.5792 6.7431 42.2674 8.44561 44.5499 10.619C46.8324 12.7923 48.6645 15.394 49.9416 18.2754C51.2186 21.1568 51.9156 24.2616 51.9928 27.4123C52.07 30.5631 51.5258 33.6982 50.3913 36.6387C49.2569 39.5792 47.5544 42.2674 45.381 44.5499C43.2076 46.8324 40.606 48.6645 37.7246 49.9416C34.8431 51.2186 31.7384 51.9156 28.5876 51.9928C25.4369 52.07 22.3017 51.5258 19.3613 50.3913C16.4208 49.2569 13.7325 47.5544 11.45 45.381C9.16754 43.2076 7.33546 40.606 6.05841 37.7246C4.78136 34.8432 4.08435 31.7384 4.00718 28.5877C3.93 25.4369 4.47418 22.3017 5.60863 19.3613C6.74308 16.4208 8.4456 13.7326 10.619 11.4501C12.7923 9.16755 15.394 7.33547 18.2754 6.05842C21.1568 4.78137 24.2615 4.08436 27.4123 4.00719C30.5631 3.93002 33.6982 4.47419 36.6387 5.60865L36.6387 5.60865Z" stroke="#B9C6E3" stroke-width="8"/>
<path d="M36.6387 5.60865C39.5792 6.7431 42.2674 8.44561 44.5499 10.619C46.8324 12.7923 48.6645 15.394 49.9416 18.2754C51.2186 21.1568 51.9156 24.2616 51.9928 27.4123C52.07 30.5631 51.5258 33.6982 50.3913 36.6387C49.2569 39.5792 47.5544 42.2674 45.381 44.5499C43.2076 46.8324 40.606 48.6645 37.7246 49.9416C34.8431 51.2186 31.7384 51.9156 28.5876 51.9928C25.4369 52.07 22.3017 51.5258 19.3613 50.3913C16.4208 49.2569 13.7325 47.5544 11.45 45.381C9.16754 43.2076 7.33546 40.606 6.05841 37.7246C4.78136 34.8432 4.08435 31.7384 4.00718 28.5877C3.93 25.4369 4.47418 22.3017 5.60863 19.3613C6.74308 16.4208 8.4456 13.7326 10.619 11.4501C12.7923 9.16755 15.394 7.33547 18.2754 6.05842C21.1568 4.78137 24.2615 4.08436 27.4123 4.00719C30.5631 3.93002 33.6982 4.47419 36.6387 5.60865L36.6387 5.60865Z" stroke="url(#paint0_linear_1_804)" stroke-width="8" stroke-linecap="round"/>
<defs>
<linearGradient id="paint0_linear_1_804" x1="5.60863" y1="19.3613" x2="50.3913" y2="36.6387" gradientUnits="userSpaceOnUse">
<stop stop-color="#EEF1F8"/>
<stop offset="1" stop-color="#5071BA"/>
</linearGradient>
</defs>
</svg>
